<svg width="96" height="96" viewBox="0 0 96 96" fill="none" xmlns="http://www.w3.org/2000/svg">
  <defs>
    <radialGradient id="osai-radial" cx="48" cy="48" r="48" gradientUnits="userSpaceOnUse">
      <stop offset="0.2" stop-color="#fff" stop-opacity="0.9"/>
      <stop offset="0.5" stop-color="#8B5CF6" stop-opacity="0.7"/>
      <stop offset="1" stop-color="#3B82F6" stop-opacity="0.9"/>
    </radialGradient>
    <linearGradient id="osai-linear" x1="0" y1="0" x2="96" y2="96" gradientUnits="userSpaceOnUse">
      <stop stop-color="#3B82F6"/>
      <stop offset="0.5" stop-color="#8B5CF6"/>
      <stop offset="1" stop-color="#EC4899"/>
    </linearGradient>
    <filter id="shadow" x="0" y="0" width="96" height="96" filterUnits="userSpaceOnUse">
      <feDropShadow dx="0" dy="4" stdDeviation="4" flood-color="#000" flood-opacity="0.12"/>
    </filter>
  </defs>
  <circle cx="48" cy="48" r="44" fill="url(#osai-linear)"/>
  <ellipse cx="48" cy="48" rx="32" ry="18" fill="url(#osai-radial)" opacity="0.7"/>
  <g filter="url(#shadow)">
    <path d="M48 20C62 20 74 32 74 48C74 64 62 76 48 76C34 76 22 64 22 48C22 32 34 20 48 20ZM48 28C38.0589 28 30 36.0589 30 46C30 55.9411 38.0589 64 48 64C57.9411 64 66 55.9411 66 46C66 36.0589 57.9411 28 48 28Z" fill="#fff"/>
    <circle cx="48" cy="46" r="10" fill="url(#osai-linear)"/>
    <rect x="38" y="38" width="20" height="20" rx="10" fill="#fff" fill-opacity="0.18"/>
    <polygon points="48,32 54,56 42,56" fill="#fff" fill-opacity="0.12"/>
  </g>
  <circle cx="48" cy="48" r="44" stroke="#fff" stroke-width="2" fill="none" opacity="0.18"/>
  <circle cx="48" cy="48" r="36" stroke="#fff" stroke-width="1.5" fill="none" opacity="0.10"/>
</svg>